<svg xmlns="http://www.w3.org/2000/svg" width="2200" height="1280" viewBox="0 0 2200 1280">
<defs>
<style>.title { font: 700 44px Arial, sans-serif; fill: #111827; } .subtitle { font: 600 22px Arial, sans-serif; fill: #475569; } .h2 { font: 700 28px Arial, sans-serif; fill: #111827; } .body { font: 18px Arial, sans-serif; fill: #111827; } .small { font: 15px Arial, sans-serif; fill: #475569; } .tiny { font: 14px Arial, sans-serif; fill: #475569; } .pin { font: 700 18px Arial, sans-serif; fill: #111827; } .tabh { font: 700 18px Arial, sans-serif; fill: #111827; } .tab { font: 16px Arial, sans-serif; fill: #111827; }</style>
<marker id="arrow" markerWidth="12" markerHeight="10" refX="10" refY="5" orient="auto"><polygon points="0,0 12,5 0,10" fill="#111827"/></marker>
</defs>
<rect width="100%" height="100%" fill="white"/>
<text x="60" y="70" class="title">Benötigte Hardware – Technische Übersicht</text>
<text x="60" y="108" class="subtitle">Alle benötigten Bauteile im gleichen klaren Dokumentationsstil</text>
<rect x="60" y="160" width="1010" height="220" rx="24" fill="#e0f2fe" stroke="#cbd5e1" stroke-width="2"/>
<circle cx="155" cy="270" r="58" fill="white" stroke="#cbd5e1" stroke-width="2"/>
<rect x="118" y="242" width="74" height="54" rx="8" fill="#94a3b8" stroke="#64748b" stroke-width="2"/><rect x="128" y="252" width="54" height="34" rx="4" fill="#e2e8f0"/>
<text x="240" y="224" class="h2">ESP32-C3 DevKitM-1</text><text x="240" y="270" class="body">Steuerplatine für ESPHome, WLAN und die komplette Projektlogik.</text><rect x="240" y="305" width="220" height="32" rx="12" fill="#dcfce7" stroke="#cbd5e1"/><text x="260" y="327" class="small">Pflicht-Komponente</text>
<rect x="1130" y="160" width="1010" height="220" rx="24" fill="#dbeafe" stroke="#cbd5e1" stroke-width="2"/><circle cx="1225" cy="270" r="58" fill="white" stroke="#cbd5e1" stroke-width="2"/><rect x="1188" y="233" width="74" height="74" rx="10" fill="#2563eb" stroke="#1d4ed8" stroke-width="2"/><path d="M 1212 252 a20 20 0 0 0 0 36" fill="none" stroke="white" stroke-width="2.5"/><path d="M 1238 252 a20 20 0 0 1 0 36" fill="none" stroke="white" stroke-width="2.5"/>
<text x="1310" y="224" class="h2">RC522 RFID Modul</text><text x="1310" y="270" class="body">Liest RFID-Karten, Tags oder Schlüsselanhänger. Anschluss per SPI.</text><rect x="1310" y="305" width="220" height="32" rx="12" fill="#dcfce7" stroke="#cbd5e1"/><text x="1330" y="327" class="small">Pflicht-Komponente</text>
<rect x="60" y="430" width="1010" height="220" rx="24" fill="#ecfccb" stroke="#cbd5e1" stroke-width="2"/><circle cx="155" cy="540" r="58" fill="white" stroke="#cbd5e1" stroke-width="2"/><circle cx="155" cy="540" r="34" fill="#111827"/><circle cx="155" cy="540" r="6" fill="#f8fafc"/>
<text x="240" y="494" class="h2">Passiver Piezo-Buzzer</text><text x="240" y="540" class="body">Erzeugt OK-, Fehler- und Alarmtöne über RTTTL.</text><rect x="240" y="575" width="220" height="32" rx="12" fill="#dcfce7" stroke="#cbd5e1"/><text x="260" y="597" class="small">Pflicht-Komponente</text>
<rect x="1130" y="430" width="1010" height="220" rx="24" fill="#fae8ff" stroke="#cbd5e1" stroke-width="2"/><circle cx="1225" cy="540" r="58" fill="white" stroke="#cbd5e1" stroke-width="2"/><polyline points="1185,563 1198,551 1211,575 1224,551 1237,575 1250,551 1263,563" fill="none" stroke="#a16207" stroke-width="3"/><polygon points="1256,524 1256,556 1284,540" fill="#f87171" stroke="#b91c1c" stroke-width="2"/><line x1="1294" y1="518" x2="1294" y2="562" stroke="#111827" stroke-width="3"/>
<text x="1310" y="494" class="h2">LED + 220 Ω Widerstand</text><text x="1310" y="540" class="body">Optisches Feedback für Status, Scan oder Alarm.</text><rect x="1310" y="575" width="220" height="32" rx="12" fill="#fef3c7" stroke="#cbd5e1"/><text x="1330" y="597" class="small">Optional</text>
<rect x="60" y="700" width="1010" height="220" rx="24" fill="#fff7ed" stroke="#cbd5e1" stroke-width="2"/><circle cx="155" cy="810" r="58" fill="white" stroke="#cbd5e1" stroke-width="2"/><line x1="130" y1="776" x2="130" y2="844" stroke="#475569" stroke-width="4"/><line x1="144" y1="776" x2="144" y2="844" stroke="#475569" stroke-width="4"/><line x1="158" y1="776" x2="158" y2="844" stroke="#475569" stroke-width="4"/><line x1="172" y1="776" x2="172" y2="844" stroke="#475569" stroke-width="4"/>
<text x="240" y="764" class="h2">Jumper-Kabel</text><text x="240" y="810" class="body">Zum Verbinden aller Baugruppen. Female–Female oder passend kombiniert.</text><rect x="240" y="845" width="220" height="32" rx="12" fill="#dcfce7" stroke="#cbd5e1"/><text x="260" y="867" class="small">Pflicht-Komponente</text>
<rect x="1130" y="700" width="1010" height="220" rx="24" fill="#fef3c7" stroke="#cbd5e1" stroke-width="2"/><circle cx="1225" cy="810" r="58" fill="white" stroke="#cbd5e1" stroke-width="2"/><rect x="1196" y="780" width="58" height="46" rx="8" fill="white" stroke="#94a3b8" stroke-width="2"/><circle cx="1254" cy="826" r="10" fill="none" stroke="#64748b" stroke-width="3"/>
<text x="1310" y="764" class="h2">RFID Tag / Karte</text><text x="1310" y="810" class="body">Zum Testen und späteren Verwenden in Home Assistant.</text><rect x="1310" y="845" width="220" height="32" rx="12" fill="#dcfce7" stroke="#cbd5e1"/><text x="1330" y="867" class="small">Pflicht-Komponente</text>
<rect x="60" y="970" width="1010" height="220" rx="24" fill="#f1f5f9" stroke="#cbd5e1" stroke-width="2"/><circle cx="155" cy="1080" r="58" fill="white" stroke="#cbd5e1" stroke-width="2"/><rect x="127" y="1046" width="56" height="72" rx="8" fill="#e2e8f0" stroke="#94a3b8" stroke-width="2"/><line x1="142" y1="1046" x2="142" y2="1028" stroke="#94a3b8" stroke-width="4"/><line x1="168" y1="1046" x2="168" y2="1028" stroke="#94a3b8" stroke-width="4"/>
<text x="240" y="1034" class="h2">USB-Kabel + 5 V Versorgung</text><text x="240" y="1080" class="body">Zum Flashen und zur Spannungsversorgung des ESP32-C3.</text><rect x="240" y="1115" width="220" height="32" rx="12" fill="#dcfce7" stroke="#cbd5e1"/><text x="260" y="1137" class="small">Pflicht-Komponente</text>
<rect x="1130" y="970" width="1010" height="220" rx="24" fill="#dcfce7" stroke="#cbd5e1" stroke-width="2"/><circle cx="1225" cy="1080" r="58" fill="white" stroke="#cbd5e1" stroke-width="2"/><circle cx="1210" cy="1066" r="12" fill="#2563eb"/><circle cx="1240" cy="1066" r="12" fill="#16a34a"/><circle cx="1225" cy="1096" r="12" fill="#f59e0b"/>
<text x="1310" y="1034" class="h2">Home Assistant + ESPHome + HACS</text><text x="1310" y="1080" class="body">Software-Seite des Projekts. Button Card empfohlen, card-mod optional.</text><rect x="1310" y="1115" width="220" height="32" rx="12" fill="#dcfce7" stroke="#cbd5e1"/><text x="1330" y="1137" class="small">Pflicht-Komponente</text>
<rect x="60" y="1215" width="2080" height="40" rx="14" fill="#eff6ff" stroke="#bfdbfe"/><text x="82" y="1242" class="body">Empfehlung: zuerst Hardware aufbauen, dann ESPHome flashen und zuletzt das Dashboard einfügen.</text>
</svg>